<svg xmlns="http://www.w3.org/2000/svg" viewBox="0 0 1200 630" width="1200" height="630">
  <rect width="1200" height="630" fill="#18181A"/>
  <circle cx="1100" cy="0" r="200" fill="#0F6E56" fill-opacity="0.07"/>
  <circle cx="100" cy="630" r="140" fill="#1D9E75" fill-opacity="0.05"/>

  <rect x="60" y="52" width="22" height="22" rx="4" fill="#1D9E75"/>
  <rect x="90" y="52" width="22" height="22" rx="4" fill="none" stroke="#1D9E75" stroke-width="1.5"/>
  <rect x="60" y="82" width="22" height="22" rx="4" fill="none" stroke="#1D9E75" stroke-width="1.5"/>
  <rect x="90" y="82" width="22" height="22" rx="4" fill="#0F6E56"/>
  <line x1="96" y1="93" x2="108" y2="93" stroke="white" stroke-width="2" stroke-linecap="round"/>
  <line x1="102" y1="87" x2="102" y2="99" stroke="white" stroke-width="2" stroke-linecap="round"/>
  <text x="124" y="66" font-family="system-ui, sans-serif" font-size="15" font-weight="500" fill="#FFFFFF">비교계산소</text>

  <rect x="60" y="160" width="112" height="30" rx="15" fill="#854F0B"/>
  <text x="74" y="180" font-family="system-ui, sans-serif" font-size="13" font-weight="500" fill="#FAEEDA">성과급 비교</text>

  <text x="60" y="260" font-family="system-ui, sans-serif" font-size="46" font-weight="500" fill="#FFFFFF" letter-spacing="-0.8">대기업 성과급 시뮬레이터</text>

  <text x="60" y="320" font-family="system-ui, sans-serif" font-size="18" fill="#5F5E5A">삼성전자, SK하이닉스, 현대자동차의 직급별 성과급과 2026~2028 총보상 시나리오를 비교하는 페이지</text>

  
      <rect x="60" y="420" width="200" height="72" rx="8" fill="#222220"/>
      <text x="72" y="446" font-family="system-ui, sans-serif" font-size="11" fill="#5F5E5A">삼성 총보상</text>
      <text x="72" y="476" font-family="system-ui, sans-serif" font-size="24" font-weight="500" fill="#1D9E75">1.1억</text>
    
      <rect x="280" y="420" width="200" height="72" rx="8" fill="#222220"/>
      <text x="292" y="446" font-family="system-ui, sans-serif" font-size="11" fill="#5F5E5A">하이닉스</text>
      <text x="292" y="476" font-family="system-ui, sans-serif" font-size="24" font-weight="500" fill="#1D9E75">1.8억</text>
    

  <line x1="60" y1="530" x2="1140" y2="530" stroke="#2E2E2C" stroke-width="1"/>
  <text x="60" y="580" font-family="system-ui, sans-serif" font-size="14" fill="#444442">비교계산소 — 숫자로 더 잘 판단하세요</text>
  <text x="1140" y="580" font-family="system-ui, sans-serif" font-size="13" fill="#444442" text-anchor="end">bigyocalc.com/tools/bonus-simulator</text>
</svg>