<svg xmlns="http://www.w3.org/2000/svg" viewBox="0 0 1200 630" width="1200" height="630">
  <rect width="1200" height="630" fill="#18181A"/>
  <circle cx="1100" cy="0" r="200" fill="#0F6E56" fill-opacity="0.07"/>
  <circle cx="100" cy="630" r="140" fill="#1D9E75" fill-opacity="0.05"/>

  <rect x="60" y="52" width="22" height="22" rx="4" fill="#1D9E75"/>
  <rect x="90" y="52" width="22" height="22" rx="4" fill="none" stroke="#1D9E75" stroke-width="1.5"/>
  <rect x="60" y="82" width="22" height="22" rx="4" fill="none" stroke="#1D9E75" stroke-width="1.5"/>
  <rect x="90" y="82" width="22" height="22" rx="4" fill="#0F6E56"/>
  <line x1="96" y1="93" x2="108" y2="93" stroke="white" stroke-width="2" stroke-linecap="round"/>
  <line x1="102" y1="87" x2="102" y2="99" stroke="white" stroke-width="2" stroke-linecap="round"/>
  <text x="124" y="66" font-family="system-ui, sans-serif" font-size="15" font-weight="500" fill="#FFFFFF">비교계산소</text>

  <rect x="60" y="160" width="126" height="30" rx="15" fill="#0F6E56"/>
  <text x="74" y="180" font-family="system-ui, sans-serif" font-size="13" font-weight="500" fill="#E1F5EE">육아휴직·출산</text>

  <text x="60" y="260" font-family="system-ui, sans-serif" font-size="46" font-weight="500" fill="#FFFFFF" letter-spacing="-0.8">6+6 부모육아휴직제 계산기</text>

  <text x="60" y="320" font-family="system-ui, sans-serif" font-size="18" fill="#5F5E5A">부모 모두 육아휴직을 쓸 때 특례 적용 여부와 일반 육아휴직 대비 차액을 비교하는 페이지</text>

  
      <rect x="60" y="420" width="200" height="72" rx="8" fill="#222220"/>
      <text x="72" y="446" font-family="system-ui, sans-serif" font-size="11" fill="#5F5E5A">특례 총액</text>
      <text x="72" y="476" font-family="system-ui, sans-serif" font-size="24" font-weight="500" fill="#1D9E75">약 900만</text>
    
      <rect x="280" y="420" width="200" height="72" rx="8" fill="#222220"/>
      <text x="292" y="446" font-family="system-ui, sans-serif" font-size="11" fill="#5F5E5A">일반 대비</text>
      <text x="292" y="476" font-family="system-ui, sans-serif" font-size="24" font-weight="500" fill="#1D9E75">+300만</text>
    

  <line x1="60" y1="530" x2="1140" y2="530" stroke="#2E2E2C" stroke-width="1"/>
  <text x="60" y="580" font-family="system-ui, sans-serif" font-size="14" fill="#444442">비교계산소 — 숫자로 더 잘 판단하세요</text>
  <text x="1140" y="580" font-family="system-ui, sans-serif" font-size="13" fill="#444442" text-anchor="end">bigyocalc.com/tools/six-plus-six</text>
</svg>