<svg xmlns="http://www.w3.org/2000/svg" viewBox="0 0 560 660" id="gov-map-svg" class="gov-map__svg" aria-label="전국 시도지사 당선자 지도" role="img">
  <title>2026 지방선거 시도지사 당선자 지도</title>
  <g class="gov-map__regions">
    <path id="gov-region-seoul" data-region-id="seoul" class="gov-map__region" tabindex="0" role="button" aria-label="서울"
      d="M173,158 L192,148 L214,154 L224,174 L214,194 L190,200 L170,188 L164,170 Z"/>
    <path id="gov-region-incheon" data-region-id="incheon" class="gov-map__region" tabindex="0" role="button" aria-label="인천"
      d="M88,164 L120,150 L150,160 L162,188 L146,218 L108,224 L82,204 Z"/>
    <path id="gov-region-gyeonggi" data-region-id="gyeonggi" class="gov-map__region" tabindex="0" role="button" aria-label="경기"
      d="M140,88 L190,68 L246,76 L286,112 L296,168 L274,218 L232,244 L206,220 L224,174 L214,154 L192,148 L173,158 L164,170 L150,160 L120,150 L106,122 Z"/>
    <path id="gov-region-gangwon" data-region-id="gangwon" class="gov-map__region" tabindex="0" role="button" aria-label="강원"
      d="M286,82 L360,56 L430,72 L474,126 L466,188 L420,236 L354,248 L300,218 L296,168 L286,112 Z"/>
    <path id="gov-region-sejong" data-region-id="sejong" class="gov-map__region" tabindex="0" role="button" aria-label="세종"
      d="M206,266 L226,256 L246,266 L248,288 L230,300 L210,292 Z"/>
    <path id="gov-region-chungbuk" data-region-id="chungbuk" class="gov-map__region" tabindex="0" role="button" aria-label="충북"
      d="M264,230 L324,224 L366,256 L374,316 L338,362 L284,354 L248,318 L248,288 L246,266 Z"/>
    <path id="gov-region-chungnam" data-region-id="chungnam" class="gov-map__region" tabindex="0" role="button" aria-label="충남"
      d="M116,244 L166,228 L206,244 L210,292 L192,336 L140,350 L94,322 L82,278 Z"/>
    <path id="gov-region-daejeon" data-region-id="daejeon" class="gov-map__region" tabindex="0" role="button" aria-label="대전"
      d="M196,318 L224,310 L246,326 L240,354 L210,362 L188,344 Z"/>
    <path id="gov-region-jeonbuk" data-region-id="jeonbuk" class="gov-map__region" tabindex="0" role="button" aria-label="전북"
      d="M126,366 L188,352 L242,368 L264,418 L238,472 L174,484 L118,450 L98,404 Z"/>
    <path id="gov-region-gwangju_jeonnam" data-region-id="gwangju_jeonnam" class="gov-map__region" tabindex="0" role="button" aria-label="광주·전남"
      d="M106,474 L172,458 L236,478 L282,524 L264,586 L196,610 L128,586 L84,536 Z"/>
    <path id="gov-region-gyeongbuk" data-region-id="gyeongbuk" class="gov-map__region" tabindex="0" role="button" aria-label="경북"
      d="M374,262 L430,246 L482,284 L488,360 L448,424 L378,430 L338,362 L374,316 Z"/>
    <path id="gov-region-daegu" data-region-id="daegu" class="gov-map__region" tabindex="0" role="button" aria-label="대구"
      d="M342,372 L370,358 L396,372 L398,404 L370,418 L340,402 Z"/>
    <path id="gov-region-ulsan" data-region-id="ulsan" class="gov-map__region" tabindex="0" role="button" aria-label="울산"
      d="M420,430 L458,418 L484,446 L474,488 L430,496 L406,464 Z"/>
    <path id="gov-region-busan" data-region-id="busan" class="gov-map__region" tabindex="0" role="button" aria-label="부산"
      d="M392,500 L432,494 L462,516 L452,552 L408,564 L378,538 Z"/>
    <path id="gov-region-gyeongnam" data-region-id="gyeongnam" class="gov-map__region" tabindex="0" role="button" aria-label="경남"
      d="M276,452 L340,432 L406,464 L408,520 L354,566 L292,548 L264,500 Z"/>
    <path id="gov-region-jeju" data-region-id="jeju" class="gov-map__region" tabindex="0" role="button" aria-label="제주"
      d="M168,624 L206,606 L252,610 L282,630 L264,652 L210,658 L166,646 Z"/>
  </g>

  <g class="gov-map__labels" aria-hidden="true">
    <text class="gov-map__label" x="192" y="180">서울</text>
    <text class="gov-map__label" x="118" y="192">인천</text>
    <text class="gov-map__label" x="225" y="126">경기</text>
    <text class="gov-map__label" x="382" y="150">강원</text>
    <text class="gov-map__label" x="226" y="282">세종</text>
    <text class="gov-map__label" x="306" y="300">충북</text>
    <text class="gov-map__label" x="165" y="304">충남</text>
    <text class="gov-map__label" x="220" y="338">대전</text>
    <text class="gov-map__label" x="186" y="420">전북</text>
    <text class="gov-map__label" x="190" y="532">광주·전남</text>
    <text class="gov-map__label" x="418" y="340">경북</text>
    <text class="gov-map__label" x="370" y="394">대구</text>
    <text class="gov-map__label" x="444" y="466">울산</text>
    <text class="gov-map__label" x="420" y="532">부산</text>
    <text class="gov-map__label" x="338" y="510">경남</text>
    <text class="gov-map__label" x="224" y="634">제주</text>
  </g>
</svg>
