<svg xmlns="http://www.w3.org/2000/svg" viewBox="0 0 560 660" id="gov-map-svg" class="gov-map__svg" aria-label="전국 시도지사 당선자 지도" role="img">
  <title>2026 지방선거 시도지사 당선자 지도</title>
  <g class="gov-map__regions">

    <!-- 서울 -->
    <path id="gov-region-seoul" data-region-id="seoul"
      class="gov-map__region" tabindex="0" role="button"
      aria-label="서울"
      d="M187,185 L197,180 L210,182 L218,188 L215,198 L205,202 L193,200 L185,193 Z"/>

    <!-- 인천 -->
    <path id="gov-region-incheon" data-region-id="incheon"
      class="gov-map__region" tabindex="0" role="button"
      aria-label="인천"
      d="M150,185 L165,178 L178,181 L187,185 L185,193 L178,200 L168,205 L155,202 L145,196 Z"/>

    <!-- 경기 -->
    <path id="gov-region-gyeonggi" data-region-id="gyeonggi"
      class="gov-map__region" tabindex="0" role="button"
      aria-label="경기"
      d="M155,150 L180,138 L205,135 L235,140 L258,155 L265,175 L260,200 L245,218 L225,228 L218,220 L215,198 L210,182 L197,180 L187,185 L178,181 L165,178 L150,185 L145,196 L135,210 L130,230 L138,248 L150,255 L155,245 L165,240 L180,238 L195,242 L205,250 L208,260 L200,270 L190,272 L178,265 L165,268 L155,278 L150,290 L158,298 L170,302 L165,315 L155,318 L148,312 L138,318 L130,310 L120,305 L112,295 L108,280 L112,265 L118,250 L120,230 L115,212 L118,195 L125,178 L135,165 Z"/>

    <!-- 강원 -->
    <path id="gov-region-gangwon" data-region-id="gangwon"
      class="gov-map__region" tabindex="0" role="button"
      aria-label="강원"
      d="M258,155 L285,140 L320,130 L355,128 L385,132 L410,142 L425,158 L430,178 L420,198 L405,215 L390,228 L372,238 L355,242 L338,238 L320,242 L305,255 L292,268 L280,278 L268,272 L260,260 L258,242 L265,225 L265,200 L260,180 Z"/>

    <!-- 세종 -->
    <path id="gov-region-sejong" data-region-id="sejong"
      class="gov-map__region" tabindex="0" role="button"
      aria-label="세종"
      d="M178,318 L190,312 L200,315 L205,325 L198,335 L185,338 L175,332 Z"/>

    <!-- 충북 -->
    <path id="gov-region-chungbuk" data-region-id="chungbuk"
      class="gov-map__region" tabindex="0" role="button"
      aria-label="충북"
      d="M200,270 L208,260 L220,258 L238,262 L255,270 L268,280 L278,295 L280,312 L272,325 L258,332 L242,335 L225,330 L212,320 L205,308 L200,295 L200,280 Z"/>

    <!-- 충남 -->
    <path id="gov-region-chungnam" data-region-id="chungnam"
      class="gov-map__region" tabindex="0" role="button"
      aria-label="충남"
      d="M108,280 L120,275 L135,278 L148,285 L155,295 L158,312 L150,325 L138,332 L125,335 L112,330 L100,320 L92,305 L90,290 L98,282 Z"/>

    <!-- 대전 -->
    <path id="gov-region-daejeon" data-region-id="daejeon"
      class="gov-map__region" tabindex="0" role="button"
      aria-label="대전"
      d="M155,318 L165,315 L178,318 L185,328 L185,338 L175,345 L162,345 L152,338 L150,328 Z"/>

    <!-- 전북 -->
    <path id="gov-region-jeonbuk" data-region-id="jeonbuk"
      class="gov-map__region" tabindex="0" role="button"
      aria-label="전북"
      d="M92,335 L108,330 L125,335 L138,340 L150,338 L162,345 L175,345 L185,352 L192,365 L185,380 L172,392 L158,398 L142,400 L128,395 L115,385 L105,372 L98,358 L90,345 Z"/>

    <!-- 광주·전남 -->
    <path id="gov-region-gwangju_jeonnam" data-region-id="gwangju_jeonnam"
      class="gov-map__region" tabindex="0" role="button"
      aria-label="광주·전남"
      d="M90,358 L105,355 L115,360 L128,368 L142,375 L158,372 L172,368 L185,365 L198,372 L210,382 L218,398 L215,415 L205,428 L192,438 L175,445 L158,448 L140,445 L125,435 L112,422 L100,408 L88,392 L82,375 Z"/>

    <!-- 경북 -->
    <path id="gov-region-gyeongbuk" data-region-id="gyeongbuk"
      class="gov-map__region" tabindex="0" role="button"
      aria-label="경북"
      d="M280,278 L292,268 L305,255 L320,248 L338,250 L355,258 L370,270 L382,285 L388,305 L385,325 L375,345 L360,360 L342,370 L325,375 L308,368 L295,355 L282,340 L278,322 Z"/>

    <!-- 대구 -->
    <path id="gov-region-daegu" data-region-id="daegu"
      class="gov-map__region" tabindex="0" role="button"
      aria-label="대구"
      d="M258,340 L272,335 L282,342 L285,355 L278,365 L265,368 L252,362 L248,350 Z"/>

    <!-- 울산 -->
    <path id="gov-region-ulsan" data-region-id="ulsan"
      class="gov-map__region" tabindex="0" role="button"
      aria-label="울산"
      d="M355,345 L370,340 L382,348 L388,362 L385,378 L372,385 L358,382 L348,370 L348,358 Z"/>

    <!-- 부산 -->
    <path id="gov-region-busan" data-region-id="busan"
      class="gov-map__region" tabindex="0" role="button"
      aria-label="부산"
      d="M308,382 L325,378 L340,382 L348,395 L345,410 L332,418 L318,415 L308,405 L305,392 Z"/>

    <!-- 경남 -->
    <path id="gov-region-gyeongnam" data-region-id="gyeongnam"
      class="gov-map__region" tabindex="0" role="button"
      aria-label="경남"
      d="M218,398 L235,392 L252,390 L265,395 L278,408 L285,422 L282,438 L268,450 L252,455 L235,452 L220,445 L208,432 L205,418 Z"/>

    <!-- 제주 -->
    <path id="gov-region-jeju" data-region-id="jeju"
      class="gov-map__region" tabindex="0" role="button"
      aria-label="제주"
      d="M135,530 L162,522 L190,525 L210,535 L215,548 L205,560 L182,565 L158,562 L138,552 L128,540 Z"/>

  </g>

  <!-- 지역명 레이블 -->
  <g class="gov-map__labels" aria-hidden="true">
    <text class="gov-map__label" x="200" y="194">서울</text>
    <text class="gov-map__label" x="162" y="195">인천</text>
    <text class="gov-map__label" x="185" y="218">경기</text>
    <text class="gov-map__label" x="345" y="190">강원</text>
    <text class="gov-map__label" x="188" y="330">세종</text>
    <text class="gov-map__label" x="240" y="305">충북</text>
    <text class="gov-map__label" x="122" y="308">충남</text>
    <text class="gov-map__label" x="166" y="335">대전</text>
    <text class="gov-map__label" x="140" y="370">전북</text>
    <text class="gov-map__label" x="148" y="415">광주·전남</text>
    <text class="gov-map__label" x="330" y="325">경북</text>
    <text class="gov-map__label" x="265" y="355">대구</text>
    <text class="gov-map__label" x="367" y="368">울산</text>
    <text class="gov-map__label" x="322" y="402">부산</text>
    <text class="gov-map__label" x="248" y="428">경남</text>
    <text class="gov-map__label" x="172" y="545">제주</text>
  </g>
</svg>
